<svg width="93" height="24" viewBox="0 0 93 24" fill="none" xmlns="http://www.w3.org/2000/svg">
<path fill-rule="evenodd" clip-rule="evenodd" d="M46.9249 15.4653H41.1615L46.927 10.6171C47.0546 10.5098 47.1284 10.3514 47.1284 10.1848V7.53221C47.1284 7.34503 46.9767 7.19312 46.7893 7.19312H37.9748C37.7875 7.19312 37.6357 7.34503 37.6357 7.53221V9.56633C37.6357 9.75351 37.7875 9.90528 37.9748 9.90528H43.1957L37.6974 14.618C37.5721 14.7254 37.5001 14.8822 37.5001 15.0471V17.8384C37.5001 18.0256 37.6519 18.1775 37.8391 18.1775H46.9249C47.1122 18.1775 47.264 18.0256 47.264 17.8384V15.8043C47.264 15.6171 47.1122 15.4653 46.9249 15.4653Z" fill="#FC157A"/>
<path fill-rule="evenodd" clip-rule="evenodd" d="M88.9326 14.7094C88.4619 15.2226 87.8009 15.479 86.9493 15.479C86.0977 15.479 85.4366 15.2226 84.9661 14.7094C84.4955 14.1966 84.2601 13.5252 84.2601 12.6951C84.2601 11.8654 84.4955 11.1939 84.9661 10.6807C85.4366 10.1678 86.0977 9.9111 86.9493 9.9111C87.8009 9.9111 88.4619 10.1678 88.9326 10.6807C89.4032 11.1939 89.6385 11.8654 89.6385 12.6951C89.6385 13.5252 89.4032 14.1966 88.9326 14.7094ZM92.5295 10.3186C92.2156 9.60956 91.7861 9.00239 91.2409 8.49659C90.6953 7.99125 90.0532 7.60273 89.3135 7.33104C88.574 7.0595 87.7859 6.92358 86.9493 6.92358C86.1124 6.92358 85.3246 7.0595 84.585 7.33104C83.8455 7.60273 83.2031 7.99125 82.6579 8.49659C82.1122 9.00239 81.6831 9.60956 81.3692 10.3186C81.0555 11.028 80.8986 11.8202 80.8986 12.6951C80.8986 13.5703 81.0555 14.3625 81.3692 15.0717C81.6831 15.781 82.1122 16.3881 82.6579 16.8935C83.2031 17.3991 83.8455 17.7875 84.585 18.059C85.3246 18.3306 86.1124 18.4665 86.9493 18.4665C87.7859 18.4665 88.574 18.3306 89.3135 18.059C90.0532 17.7875 90.6953 17.3991 91.2409 16.8935C91.7861 16.3881 92.2156 15.781 92.5295 15.0717C92.8431 14.3625 93 13.5703 93 12.6951C93 11.8202 92.8431 11.028 92.5295 10.3186Z" fill="#FC157A"/>
<path fill-rule="evenodd" clip-rule="evenodd" d="M52.2355 11.4384C52.2503 11.1676 52.3145 10.908 52.4278 10.6596C52.5409 10.4113 52.6993 10.1934 52.9026 10.0051C53.1062 9.81691 53.3512 9.66291 53.6378 9.54215C53.924 9.42185 54.2559 9.36154 54.633 9.36154C55.2511 9.36154 55.7561 9.56482 56.1485 9.97107C56.5403 10.3773 56.7286 10.8667 56.7137 11.4384H52.2355ZM58.7154 8.49252C58.2705 7.98833 57.7278 7.60082 57.087 7.32984C56.4459 7.05885 55.7336 6.92358 54.9496 6.92358C54.105 6.92358 53.3098 7.05885 52.5635 7.32984C51.8169 7.60082 51.1685 7.98833 50.6182 8.49252C50.0677 8.99686 49.6344 9.60261 49.3176 10.3098C49.0012 11.0174 48.8428 11.8074 48.8428 12.6802C48.8428 13.553 49.0012 14.3433 49.3176 15.0503C49.6344 15.7579 50.1444 16.4773 50.6952 16.9813C51.2454 17.4858 52.079 18.0151 53.2865 18.2888C55.1783 18.7176 57.8724 18.4998 59.4765 16.1762C59.6104 15.9822 59.5175 15.7148 59.2901 15.6522L57.5278 15.1674C57.3415 15.1162 57.1464 15.171 57.0023 15.2996C55.8804 16.302 53.9882 16.0003 53.1175 15.2874C52.6585 14.9115 52.3711 14.3883 52.2355 13.741H59.7672C59.9547 13.741 60.1064 13.5894 60.1064 13.4023V12.6802C60.1064 11.8074 59.9856 11.0174 59.7447 10.3098C59.5031 9.60261 59.16 8.99686 58.7154 8.49252Z" fill="#FC157A"/>
<path fill-rule="evenodd" clip-rule="evenodd" d="M65.2081 11.4384C65.2231 11.1676 65.2872 10.908 65.4004 10.6596C65.5135 10.4113 65.6719 10.1934 65.8753 10.0051C66.0788 9.81691 66.3238 9.66291 66.6105 9.54215C66.8967 9.42185 67.2286 9.36154 67.6056 9.36154C68.2238 9.36154 68.7288 9.56482 69.1211 9.97107C69.513 10.3773 69.7012 10.8667 69.6864 11.4384H65.2081ZM71.6881 8.49252C71.2432 7.98833 70.7005 7.60082 70.0596 7.32984C69.4187 7.05885 68.7062 6.92358 67.9223 6.92358C67.0776 6.92358 66.2825 7.05885 65.5361 7.32984C64.7896 7.60082 64.1412 7.98833 63.5909 8.49252C63.0405 8.99686 62.6071 9.60261 62.2903 10.3098C61.9738 11.0174 61.8154 11.8074 61.8154 12.6802C61.8154 13.553 61.9738 14.3433 62.2903 15.0503C62.6071 15.7579 63.1171 16.4773 63.6678 16.9813C64.2181 17.4858 65.0517 18.0151 66.2592 18.2888C68.1509 18.7176 70.8451 18.4998 72.4491 16.1762C72.583 15.9822 72.4902 15.7148 72.2627 15.6522L70.5004 15.1674C70.3142 15.1162 70.119 15.171 69.975 15.2996C68.8531 16.302 66.961 16.0003 66.0902 15.2874C65.6312 14.9115 65.3438 14.3883 65.2081 13.741H72.7399C72.9273 13.741 73.0791 13.5894 73.0791 13.4023V12.6802C73.0791 11.8074 72.9584 11.0174 72.7173 10.3098C72.4758 9.60261 72.1327 8.99686 71.6881 8.49252Z" fill="#FC157A"/>
<path fill-rule="evenodd" clip-rule="evenodd" d="M78.276 3.09521H75.5948C75.4098 3.09521 75.2598 3.24671 75.2598 3.43354V17.8371C75.2598 18.024 75.4098 18.1755 75.5948 18.1755H78.276C78.4611 18.1755 78.6109 18.024 78.6109 17.8371V3.43354C78.6109 3.24671 78.4611 3.09521 78.276 3.09521Z" fill="#FC157A"/>
<path fill-rule="evenodd" clip-rule="evenodd" d="M28.0763 0.000244141H3.6877C2.09965 0.000244141 1.53632 2.10592 2.91177 2.90109L21.0587 13.3944C22.1805 14.0431 23.6151 13.6562 24.26 12.5311L29.7668 2.92425C30.5128 1.62292 29.5746 0.000244141 28.0763 0.000244141Z" fill="#FC157A"/>
<path fill-rule="evenodd" clip-rule="evenodd" d="M27.0807 20.5019L8.97708 10.0337C7.85402 9.38423 6.41776 9.77159 5.77215 10.898L0.260741 20.513C-0.482612 21.8097 0.452021 23.4265 1.94488 23.4265H26.2982C27.8993 23.4265 28.4673 21.3037 27.0807 20.5019Z" fill="#FC157A"/>
</svg>
